<?xml version="1.0" encoding="UTF-8" standalone="no"?>
<svg width="420px" height="420px" viewBox="0 0 420 420" version="1.1" xmlns="http://www.w3.org/2000/svg" xmlns:xlink="http://www.w3.org/1999/xlink">
    <!-- Generator: Sketch 43.2 (39069) - http://www.bohemiancoding.com/sketch -->
    <title>dashboard</title>
    <desc>Created with Sketch.</desc>
    <defs>
        <polygon id="path-1" points="2.71050543e-20 0.0005 2.71050543e-20 10.6105 9.7675 10.6105 9.7675 0.0005 0 0.0005"></polygon>
        <polygon id="path-3" points="2.71050543e-20 0.0005 2.71050543e-20 10.6105 9.7675 10.6105 9.7675 0.0005 0 0.0005"></polygon>
    </defs>
    <g id="Page-1" stroke="none" stroke-width="1" fill="none" fill-rule="evenodd">
        <g id="Events-green" transform="translate(2.000000, 40.000000)">
            <polygon id="Fill-1" fill="#00D88C" points="6.5898 9.9488 7.5458 10.9998 9.4088 9.3048 11.2728 10.9998 12.2288 9.9488 9.4088 7.3848"></polygon>
            <g id="Group-4">
                <mask id="mask-2" fill="white">
                    <use xlink:href="#path-1"></use>
                </mask>
                <g id="Clip-3"></g>
                <path d="M2.3315,0.8965 C2.7595,0.8965 3.1075,1.2445 3.1075,1.6715 C3.1075,2.0995 2.7595,2.4485 2.3315,2.4485 C1.9035,2.4485 1.5555,2.0995 1.5555,1.6715 C1.5555,1.2445 1.9035,0.8965 2.3315,0.8965 L2.3315,0.8965 Z M7.4335,0.8965 C7.8605,0.8965 8.2085,1.2445 8.2085,1.6715 C8.2085,2.0995 7.8605,2.4485 7.4335,2.4485 C7.0045,2.4485 6.6565,2.0995 6.6565,1.6715 C6.6565,1.2445 7.0045,0.8965 7.4335,0.8965 L7.4335,0.8965 Z M0.9055,3.3415 L8.8635,3.3415 L8.8635,5.7845 L9.7675,5.7845 L9.7675,0.0005 L-0.0005,0.0005 L-0.0005,10.6105 L4.6205,10.6105 L4.6205,9.7085 L0.9055,9.7085 L0.9055,3.3415 Z" id="Fill-2" fill="#00D88C" mask="url(#mask-2)"></path>
            </g>
        </g>
        <g id="Events-Gray" transform="translate(26.000000, 40.000000)">
            <polygon id="Fill-1" fill="#BFBFBF" points="6.5898 9.9488 7.5458 10.9998 9.4088 9.3048 11.2728 10.9998 12.2288 9.9488 9.4088 7.3848"></polygon>
            <g id="Group-4">
                <mask id="mask-4" fill="white">
                    <use xlink:href="#path-3"></use>
                </mask>
                <g id="Clip-3"></g>
                <path d="M2.3315,0.8965 C2.7595,0.8965 3.1075,1.2445 3.1075,1.6715 C3.1075,2.0995 2.7595,2.4485 2.3315,2.4485 C1.9035,2.4485 1.5555,2.0995 1.5555,1.6715 C1.5555,1.2445 1.9035,0.8965 2.3315,0.8965 L2.3315,0.8965 Z M7.4335,0.8965 C7.8605,0.8965 8.2085,1.2445 8.2085,1.6715 C8.2085,2.0995 7.8605,2.4485 7.4335,2.4485 C7.0045,2.4485 6.6565,2.0995 6.6565,1.6715 C6.6565,1.2445 7.0045,0.8965 7.4335,0.8965 L7.4335,0.8965 Z M0.9055,3.3415 L8.8635,3.3415 L8.8635,5.7845 L9.7675,5.7845 L9.7675,0.0005 L-0.0005,0.0005 L-0.0005,10.6105 L4.6205,10.6105 L4.6205,9.7085 L0.9055,9.7085 L0.9055,3.3415 Z" id="Fill-2" fill="#BFBFBF" mask="url(#mask-4)"></path>
            </g>
        </g>
        <g id="csv-dark" transform="translate(81.000000, 41.000000)">
            <polyline id="Stroke-1" stroke="#00D88C" stroke-width="1.5" stroke-linecap="round" stroke-linejoin="round" points="3.876 5.039 3.876 0.75 12.562 0.75 16.904 5.023 16.904 16.569 3.876 16.569 3.876 13.121"></polyline>
            <path d="M0,9.0439 L0,9.0319 C0,7.8089 0.941,6.8499 2.213,6.8499 C3.07,6.8499 3.622,7.2089 3.994,7.7249 L3.118,8.4019 C2.879,8.1029 2.603,7.9099 2.201,7.9099 C1.613,7.9099 1.199,8.4079 1.199,9.0199 L1.199,9.0319 C1.199,9.6619 1.613,10.1529 2.201,10.1529 C2.639,10.1529 2.896,9.9489 3.148,9.6439 L4.024,10.2679 C3.628,10.8139 3.095,11.2149 2.165,11.2149 C0.966,11.2149 0,10.2969 0,9.0439" id="Fill-3" fill="#00D88C"></path>
            <path d="M4.6562,10.5068 L5.3032,9.7338 C5.7182,10.0638 6.1792,10.2368 6.6652,10.2368 C6.9772,10.2368 7.1452,10.1298 7.1452,9.9488 L7.1452,9.9378 C7.1452,9.7638 7.0072,9.6678 6.4372,9.5358 C5.5442,9.3318 4.8542,9.0798 4.8542,8.2168 L4.8542,8.2038 C4.8542,7.4248 5.4712,6.8608 6.4792,6.8608 C7.1932,6.8608 7.7512,7.0528 8.2072,7.4188 L7.6252,8.2398 C7.2412,7.9708 6.8212,7.8268 6.4492,7.8268 C6.1682,7.8268 6.0292,7.9458 6.0292,8.0968 L6.0292,8.1088 C6.0292,8.3008 6.1742,8.3848 6.7552,8.5168 C7.7202,8.7268 8.3202,9.0378 8.3202,9.8228 L8.3202,9.8358 C8.3202,10.6938 7.6422,11.2028 6.6232,11.2028 C5.8802,11.2028 5.1722,10.9688 4.6562,10.5068" id="Fill-5" fill="#00D88C"></path>
            <polygon id="Fill-7" fill="#00D88C" points="8.8213 6.9336 10.1223 6.9336 11.0763 9.5896 12.0293 6.9336 13.3063 6.9336 11.6033 11.1616 10.5243 11.1616"></polygon>
        </g>
        <g id="csv-white" transform="translate(101.000000, 41.000000)">
            <polyline id="Stroke-1" stroke="#F5F5F5" stroke-width="1.5" stroke-linecap="round" stroke-linejoin="round" points="3.876 5.039 3.876 0.75 12.562 0.75 16.904 5.023 16.904 16.569 3.876 16.569 3.876 13.121"></polyline>
            <path d="M0,9.0439 L0,9.0319 C0,7.8089 0.941,6.8499 2.213,6.8499 C3.07,6.8499 3.622,7.2089 3.994,7.7249 L3.118,8.4019 C2.879,8.1029 2.603,7.9099 2.201,7.9099 C1.613,7.9099 1.199,8.4079 1.199,9.0199 L1.199,9.0319 C1.199,9.6619 1.613,10.1529 2.201,10.1529 C2.639,10.1529 2.896,9.9489 3.148,9.6439 L4.024,10.2679 C3.628,10.8139 3.095,11.2149 2.165,11.2149 C0.966,11.2149 0,10.2969 0,9.0439" id="Fill-3" fill="#F5F5F5"></path>
            <path d="M4.6562,10.5068 L5.3032,9.7338 C5.7182,10.0638 6.1792,10.2368 6.6652,10.2368 C6.9772,10.2368 7.1452,10.1298 7.1452,9.9488 L7.1452,9.9378 C7.1452,9.7638 7.0072,9.6678 6.4372,9.5358 C5.5442,9.3318 4.8542,9.0798 4.8542,8.2168 L4.8542,8.2038 C4.8542,7.4248 5.4712,6.8608 6.4792,6.8608 C7.1932,6.8608 7.7512,7.0528 8.2072,7.4188 L7.6252,8.2398 C7.2412,7.9708 6.8212,7.8268 6.4492,7.8268 C6.1682,7.8268 6.0292,7.9458 6.0292,8.0968 L6.0292,8.1088 C6.0292,8.3008 6.1742,8.3848 6.7552,8.5168 C7.7202,8.7268 8.3202,9.0378 8.3202,9.8228 L8.3202,9.8358 C8.3202,10.6938 7.6422,11.2028 6.6232,11.2028 C5.8802,11.2028 5.1722,10.9688 4.6562,10.5068" id="Fill-5" fill="#F5F5F5"></path>
            <polygon id="Fill-7" fill="#F5F5F5" points="8.8213 6.9336 10.1223 6.9336 11.0763 9.5896 12.0293 6.9336 13.3063 6.9336 11.6033 11.1616 10.5243 11.1616"></polygon>
        </g>
        <g id="filter-gray" transform="translate(43.000000, 45.000000)">
            <g id="Imported-Layers-3" transform="translate(10.000000, 8.000000)" fill="#868686">
                <path d="M3.32187489,0.711734006 C3.57824988,0.711734006 3.63949987,0.863400662 3.45837488,1.05117843 L2.14149998,2.40895611 C1.96037499,2.59583109 1.66375001,2.59583109 1.48350002,2.40895611 L0.166625116,1.05117843 C-0.0144998709,0.863400662 0.0467501247,0.711734006 0.303125107,0.711734006 L3.32187489,0.711734006" id="Fill-1"></path>
            </g>
            <g id="Imported-Layers-10" stroke="#868686" stroke-width="1.5" stroke-linejoin="round">
                <polygon id="Stroke-1" points="10.4273125 0.516705882 0.5726875 0.516705882 5.5 6.84070588"></polygon>
                <path d="M5.5006875,6.84070588 L5.5006875,10.6348235" id="Stroke-2" stroke-linecap="round"></path>
            </g>
        </g>
        <g id="filter-green" transform="translate(65.000000, 45.000000)">
            <g id="Imported-Layers-3" transform="translate(10.000000, 8.000000)" fill="#00D88C">
                <path d="M3.32187489,0.711734006 C3.57824988,0.711734006 3.63949987,0.863400662 3.45837488,1.05117843 L2.14149998,2.40895611 C1.96037499,2.59583109 1.66375001,2.59583109 1.48350002,2.40895611 L0.166625116,1.05117843 C-0.0144998709,0.863400662 0.0467501247,0.711734006 0.303125107,0.711734006 L3.32187489,0.711734006" id="Fill-1"></path>
            </g>
            <g id="Imported-Layers-10" stroke="#00D88C" stroke-width="1.5" stroke-linejoin="round">
                <polygon id="Stroke-1" points="10.4273125 0.516705882 0.5726875 0.516705882 5.5 6.84070588"></polygon>
                <path d="M5.5006875,6.84070588 L5.5006875,10.6348235" id="Stroke-2" stroke-linecap="round"></path>
            </g>
        </g>
        <g id="logo-small">
            <polyline id="Fill-1" fill="#F6F6F6" points="3.995 18.817 3.995 7.126 0 7.185 0 5.149 10.358 5.149 10.358 7.185 6.384 7.126 6.384 18.817 3.995 18.817"></polyline>
            <polygon id="Fill-2" fill="#F6F6F6" points="8.106 8.791 10.358 8.791 10.358 18.817 8.106 18.817"></polygon>
            <path d="M19.002,10.807 C18.493,10.553 17.925,10.435 17.279,10.435 C15.281,10.435 14.087,11.846 14.087,13.765 C14.087,15.723 15.223,17.153 17.279,17.153 C17.965,17.153 18.493,17.036 19.179,16.721 L19.315,18.581 C18.649,18.836 17.886,18.954 17.024,18.954 C13.833,18.954 11.718,16.936 11.718,13.823 C11.718,10.71 13.989,8.654 17.044,8.654 C17.847,8.654 18.552,8.771 19.159,8.987 L19.002,10.807" id="Fill-3" fill="#F6F6F6"></path>
            <path d="M24.932,16.075 C24.325,15.351 23.601,14.352 23.071,13.647 L23.032,13.647 L23.032,18.817 L20.762,18.817 L20.762,5.149 L23.032,5.149 L23.032,13.04 L23.071,13.04 C23.542,12.433 24.345,11.493 24.971,10.807 L26.85,8.791 L29.593,8.791 L25.206,13.217 L30.101,18.817 L27.204,18.817 L24.932,16.075" id="Fill-4" fill="#F6F6F6"></path>
            <path d="M31.689,14.392 C31.748,16.193 33.04,17.27 34.979,17.27 C36.134,17.27 37.035,17.015 37.916,16.487 L37.994,18.425 C37.094,18.836 36.017,19.051 34.764,19.051 C31.454,19.051 29.418,17.074 29.418,13.745 C29.418,10.651 31.395,8.556 34.313,8.556 C37.113,8.556 38.68,10.2 38.68,13.725 C38.68,13.902 38.66,14.215 38.64,14.392 L31.689,14.392 L31.689,14.392 Z M36.564,12.786 C36.564,10.984 35.644,10.181 34.234,10.181 C32.903,10.181 31.846,11.082 31.689,12.786 L36.564,12.786 L36.564,12.786 Z" id="Fill-5" fill="#F6F6F6"></path>
            <path d="M42.262,10.592 C42.81,9.339 43.711,8.556 45.061,8.556 C45.434,8.556 45.688,8.576 45.983,8.673 L45.983,10.671 C45.747,10.573 45.434,10.534 45.042,10.534 C43.299,10.534 42.34,11.905 42.34,14.509 L42.34,18.817 L40.088,18.817 L40.088,11.767 C40.088,10.69 40.068,9.633 39.99,8.791 L42.145,8.791 C42.203,9.261 42.223,10.064 42.223,10.592 L42.262,10.592" id="Fill-6" fill="#F6F6F6"></path>
            <polyline id="Fill-7" fill="#F6F6F6" points="49.976 18.817 49.976 7.126 45.983 7.185 45.983 5.149 56.34 5.149 56.34 7.185 52.365 7.126 52.365 18.817 49.976 18.817"></polyline>
            <path d="M54.986,9.359 C55.984,8.811 57.277,8.556 58.452,8.556 C61.507,8.556 62.643,10.181 62.643,12.59 C62.643,13.452 62.603,14.548 62.603,15.273 L62.603,16.329 C62.603,17.289 62.662,18.21 62.74,18.817 L60.763,18.817 C60.743,18.66 60.724,18.307 60.724,18.014 C60.724,17.759 60.743,17.426 60.763,17.132 L60.724,17.132 C60.038,18.307 58.961,18.974 57.316,18.974 C55.28,18.974 53.89,17.818 53.89,15.919 C53.89,13.804 55.75,12.649 59.118,12.649 C59.529,12.649 60.077,12.649 60.527,12.707 C60.527,11.082 59.705,10.28 58.08,10.28 C57.042,10.28 55.927,10.651 55.084,11.2 L54.986,9.359 L54.986,9.359 Z M59.627,14.078 C57.336,14.078 56.181,14.587 56.181,15.84 C56.181,16.781 56.827,17.309 57.903,17.309 C59.549,17.309 60.567,16.311 60.567,14.118 C60.332,14.098 60.019,14.078 59.627,14.078 L59.627,14.078 L59.627,14.078 Z" id="Fill-8" fill="#F6F6F6"></path>
            <path d="M73.635,8.737 L73.635,18.177 C73.635,20.898 72.225,23.111 68.544,23.111 C67.154,23.111 65.959,22.935 64.628,22.445 L64.823,20.408 C66.076,21.094 67.213,21.349 68.407,21.349 C70.385,21.349 71.462,20.213 71.462,18.079 C71.462,17.745 71.442,17.314 71.501,16.942 L71.462,16.942 C70.854,17.961 69.797,18.764 68.211,18.764 C65.587,18.764 63.825,16.766 63.825,13.79 C63.825,10.657 65.626,8.503 68.368,8.503 C69.876,8.503 70.953,9.189 71.56,10.284 L71.599,10.284 C71.54,9.658 71.56,9.267 71.56,8.737 L73.635,8.737 L73.635,8.737 Z M66.175,13.692 C66.175,15.631 67.173,16.982 68.74,16.982 C70.307,16.982 71.423,15.552 71.423,13.653 C71.423,11.753 70.307,10.284 68.721,10.284 C67.232,10.284 66.175,11.753 66.175,13.692 L66.175,13.692 L66.175,13.692 Z" id="Fill-9" fill="#F6F6F6"></path>
            <path d="M75.324,16.682 C76.186,17.132 77.106,17.348 77.948,17.348 C78.947,17.348 79.711,16.917 79.711,16.115 C79.711,15.39 79.26,15.017 77.693,14.392 C75.893,13.666 75.207,12.903 75.207,11.552 C75.207,9.672 76.695,8.556 78.947,8.556 C79.906,8.556 80.749,8.693 81.473,8.987 L81.277,10.749 C80.494,10.377 79.77,10.221 79.006,10.221 C78.085,10.221 77.419,10.612 77.419,11.376 C77.419,12.12 77.909,12.394 79.26,12.923 C81.081,13.627 81.962,14.43 81.962,15.938 C81.962,17.975 80.356,19.051 78.085,19.051 C77.048,19.051 76.068,18.876 75.187,18.543 L75.324,16.682" id="Fill-10" fill="#F6F6F6"></path>
            <path d="M90.04,11.03 C89.9,11.088 89.738,11.055 89.629,10.949 L79.933,1.252 C79.826,1.146 79.793,0.983 79.852,0.843 C79.909,0.703 80.046,0.611 80.197,0.611 L87.47,0.611 C89.014,0.611 90.271,1.867 90.271,3.41 L90.271,10.683 C90.271,10.835 90.18,10.972 90.04,11.03" id="Fill-11" fill="#00D88C"></path>
            <path d="M88.369,17.813 L87.998,17.813 L87.998,17.688 L88.867,17.688 L88.867,17.813 L88.497,17.813 L88.497,18.817 L88.369,18.817 L88.369,17.813 L88.369,17.813 Z M89.124,17.688 L89.26,17.688 L89.699,18.359 L90.139,17.688 L90.271,17.688 L90.271,18.817 L90.143,18.817 L90.143,17.916 L89.707,18.568 L89.689,18.568 L89.252,17.916 L89.252,18.817 L89.124,18.817 L89.124,17.688 L89.124,17.688 Z" id="Fill-12" fill="#F6F6F6"></path>
        </g>
        <polygon id="close-x-med-white" fill="#FFFFFF" opacity="0.8" transform="translate(227.071068, 7.071068) rotate(-45.000000) translate(-227.071068, -7.071068) " points="228.071068 6.07106786 228.071068 2.07106786 226.071068 2.07106786 226.071068 6.07106786 222.071068 6.07106786 222.071068 8.07106786 226.071068 8.07106786 226.071068 12.0710679 228.071068 12.0710679 228.071068 8.07106786 232.071068 8.07106786 232.071068 6.07106786"></polygon>
        <g id="ALERTS" transform="translate(100.000000, 0.000000)">
            <g id="ALERT-ICON">
                <path d="M5.00041667,4.64312195 L5.00041667,1.40526829 C5.00041667,0.632585366 4.32458333,0 3.50041667,0 L0.0433333333,0 L5.00041667,4.64312195" id="Fill-1" fill="#00D88C"></path>
                <path d="M5.00041667,11.3170732 L5.00041667,14.5549268 C5.00041667,15.3276098 4.32458333,15.9601951 3.50041667,15.9601951 L0.0433333333,15.9601951 L5.00041667,11.3170732" id="Fill-2" fill="#FF6565"></path>
            </g>
        </g>
        <g id="sentiment-colored" transform="translate(47.000000, 65.000000)">
            <path d="M0,4 C0,3.44771525 0.442660332,3 0.998956561,3 L2.00104344,3 C2.55275191,3 3,3.44386482 3,4 L3,5 L0,5 L0,4 Z" id="Rectangle" fill="#00D88C"></path>
            <path d="M0,6.50016487 C0,5.67164669 0.665797234,5 1.5,5 L1.5,5 C2.32842712,5 3,5.67432225 3,6.50016487 L3,10 L0,10 L0,6.50016487 Z" id="Rectangle-Copy" fill="#FF6565" transform="translate(1.500000, 7.500000) rotate(-180.000000) translate(-1.500000, -7.500000) "></path>
            <path d="M3,1.50016487 C3,0.671646689 3.66579723,0 4.5,0 L4.5,0 C5.32842712,0 6,0.674322248 6,1.50016487 L6,5 L3,5 L3,1.50016487 Z" id="Rectangle" fill="#00D88C"></path>
            <path d="M3,6.5 C3,5.67157288 3.66579723,5 4.5,5 L4.5,5 C5.32842712,5 6,5.66579723 6,6.5 L6,8 L3,8 L3,6.5 Z" id="Rectangle-Copy" fill="#FF6565" transform="translate(4.500000, 6.500000) rotate(-180.000000) translate(-4.500000, -6.500000) "></path>
        </g>
        <g id="sentiment-gray" transform="translate(69.000000, 65.000000)" fill="#BFBFBF">
            <path d="M0,4 C0,3.44771525 0.442660332,3 0.998956561,3 L2.00104344,3 C2.55275191,3 3,3.44386482 3,4 L3,5 L0,5 L0,4 Z" id="Rectangle"></path>
            <path d="M0,6.50016487 C0,5.67164669 0.665797234,5 1.5,5 L1.5,5 C2.32842712,5 3,5.67432225 3,6.50016487 L3,10 L0,10 L0,6.50016487 Z" id="Rectangle-Copy" fill-opacity="0.6" transform="translate(1.500000, 7.500000) rotate(-180.000000) translate(-1.500000, -7.500000) "></path>
            <path d="M3,1.50016487 C3,0.671646689 3.66579723,0 4.5,0 L4.5,0 C5.32842712,0 6,0.674322248 6,1.50016487 L6,5 L3,5 L3,1.50016487 Z" id="Rectangle"></path>
            <path d="M3,6.5 C3,5.67157288 3.66579723,5 4.5,5 L4.5,5 C5.32842712,5 6,5.66579723 6,6.5 L6,8 L3,8 L3,6.5 Z" id="Rectangle-Copy" fill-opacity="0.6" transform="translate(4.500000, 6.500000) rotate(-180.000000) translate(-4.500000, -6.500000) "></path>
        </g>
        <g id="Group-4" transform="translate(65.000000, 85.000000)">
            <g id="sentiment-gray" transform="translate(4.000000, 1.000000)" fill="#BFBFBF">
                <path d="M0,4 C0,3.44771525 0.442660332,3 0.998956561,3 L2.00104344,3 C2.55275191,3 3,3.44386482 3,4 L3,5 L0,5 L0,4 Z" id="Rectangle"></path>
                <path d="M0,6.50016487 C0,5.67164669 0.665797234,5 1.5,5 L1.5,5 C2.32842712,5 3,5.67432225 3,6.50016487 L3,10 L0,10 L0,6.50016487 Z" id="Rectangle-Copy" fill-opacity="0.6" transform="translate(1.500000, 7.500000) rotate(-180.000000) translate(-1.500000, -7.500000) "></path>
                <path d="M3,1.50016487 C3,0.671646689 3.66579723,0 4.5,0 L4.5,0 C5.32842712,0 6,0.674322248 6,1.50016487 L6,5 L3,5 L3,1.50016487 Z" id="Rectangle"></path>
                <path d="M3,6.5 C3,5.67157288 3.66579723,5 4.5,5 L4.5,5 C5.32842712,5 6,5.66579723 6,6.5 L6,8 L3,8 L3,6.5 Z" id="Rectangle-Copy" fill-opacity="0.6" transform="translate(4.500000, 6.500000) rotate(-180.000000) translate(-4.500000, -6.500000) "></path>
            </g>
            <text id="$" font-family="Roboto-Light, Roboto" font-size="6" font-weight="300" letter-spacing="-0.0131270653" fill="#D9D9D9">
                <tspan x="0" y="6">$</tspan>
            </text>
        </g>
        <g id="Group" transform="translate(25.000000, 65.000000)">
            <polyline id="positive-up" stroke="#00D88C" stroke-width="2" points="2 9.34875 5.29784615 6 8.59630769 9.34875"></polyline>
            <text id="$" font-family="Roboto-Light, Roboto" font-size="6" font-weight="300" letter-spacing="-0.0131270653" fill="#00D88C">
                <tspan x="0" y="6">$</tspan>
            </text>
        </g>
        <g id="Group-Copy" transform="translate(25.000000, 105.000000)">
            <g id="Group-2">
                <polyline id="positive-up" stroke="#BFBFBF" stroke-width="2" points="2 9.34875 5.29784615 6 8.59630769 9.34875"></polyline>
                <text id="$" font-family="Roboto-Light, Roboto" font-size="6" font-weight="300" letter-spacing="-0.0131270653" fill="#BFBFBF">
                    <tspan x="0" y="6">$</tspan>
                </text>
            </g>
        </g>
        <g id="Group" transform="translate(25.000000, 83.000000)">
            <polyline id="positive-up" stroke="#FF6565" stroke-width="2" transform="translate(5.298154, 8.674375) rotate(-180.000000) translate(-5.298154, -8.674375) " points="2 10.34875 5.29784615 7 8.59630769 10.34875"></polyline>
            <text id="$" font-family="Roboto-Light, Roboto" font-size="6" font-weight="300" letter-spacing="-0.0131270653" fill="#FF6565">
                <tspan x="0" y="6">$</tspan>
            </text>
        </g>
        <g id="Momentum-green" transform="translate(0.000000, 65.000000)" stroke="#00D88C">
            <polyline id="positive-up" stroke-width="2" points="4.22917074 3.01296996 7.52701689 0.0129699553 10.8254784 3.01296996"></polyline>
            <path d="M7.5,0.5 L7.5,10.5" id="Line" stroke-linecap="square"></path>
            <path d="M4.5,10.5 L4.5,6.5" id="Line" stroke-linecap="square"></path>
            <path d="M1.5,10.5 L1.5,8.5" id="Line" stroke-linecap="square"></path>
        </g>
        <g id="Group-5" transform="translate(0.000000, 105.000000)">
            <g id="Momentum-cash-gray" stroke="#BFBFBF">
                <polyline id="positive-up" stroke-width="2" points="4.22917074 3.01296996 7.52701689 0.0129699553 10.8254784 3.01296996"></polyline>
                <path d="M7.5,0.5 L7.5,10.5" id="Line" stroke-linecap="square"></path>
                <path d="M4.5,10.5 L4.5,6.5" id="Line" stroke-linecap="square"></path>
                <path d="M1.5,10.5 L1.5,8.5" id="Line" stroke-linecap="square"></path>
            </g>
            <text id="$" font-family="Roboto-Light, Roboto" font-size="6" font-weight="300" letter-spacing="-0.0131270653" fill="#BFBFBF">
                <tspan x="0" y="6">$</tspan>
            </text>
        </g>
        <g id="Momentum-red" transform="translate(0.000000, 85.000000)" stroke="#FF6565">
            <g id="Momentum-green-Copy">
                <polyline id="positive-up" stroke-width="2" transform="translate(7.527325, 8.512970) rotate(-180.000000) translate(-7.527325, -8.512970) " points="4.22917074 10.01297 7.52701689 7.01296996 10.8254784 10.01297"></polyline>
                <path d="M7.5,0.5 L7.5,10.5" id="Line" stroke-linecap="square"></path>
                <path d="M4.5,4.5 L4.5,0.5" id="Line" stroke-linecap="square"></path>
                <path d="M1.5,2.5 L1.5,0.5" id="Line" stroke-linecap="square"></path>
            </g>
        </g>
        <g id="Group-3" transform="translate(43.000000, 85.000000)">
            <g id="sentiment-colored" transform="translate(4.000000, 1.000000)">
                <path d="M0,4 C0,3.44771525 0.442660332,3 0.998956561,3 L2.00104344,3 C2.55275191,3 3,3.44386482 3,4 L3,5 L0,5 L0,4 Z" id="Rectangle" fill="#00D88C"></path>
                <path d="M0,6.50016487 C0,5.67164669 0.665797234,5 1.5,5 L1.5,5 C2.32842712,5 3,5.67432225 3,6.50016487 L3,10 L0,10 L0,6.50016487 Z" id="Rectangle-Copy" fill="#FF6565" transform="translate(1.500000, 7.500000) rotate(-180.000000) translate(-1.500000, -7.500000) "></path>
                <path d="M3,1.50016487 C3,0.671646689 3.66579723,0 4.5,0 L4.5,0 C5.32842712,0 6,0.674322248 6,1.50016487 L6,5 L3,5 L3,1.50016487 Z" id="Rectangle" fill="#00D88C"></path>
                <path d="M3,6.5 C3,5.67157288 3.66579723,5 4.5,5 L4.5,5 C5.32842712,5 6,5.66579723 6,6.5 L6,8 L3,8 L3,6.5 Z" id="Rectangle-Copy" fill="#FF6565" transform="translate(4.500000, 6.500000) rotate(-180.000000) translate(-4.500000, -6.500000) "></path>
            </g>
            <text id="$" font-family="Roboto-Light, Roboto" font-size="6" font-weight="300" letter-spacing="-0.0131270653" fill="#00D88C">
                <tspan x="0" y="6">$</tspan>
            </text>
        </g>
    </g>
</svg>